<mxfile host="app.diagrams.net" modified="2023-05-24T00:21:28.072Z" agent="Mozilla/5.0 (Windows NT 10.0; Win64; x64) AppleWebKit/537.36 (KHTML, like Gecko) Chrome/113.0.0.0 Safari/537.36" etag="27BF6ZjruU0s4ET5Uryg" version="21.3.3" type="device">
  <diagram id="sPfsV-2h1qYcOUSBaJ0Z" name="Página-2">
    <mxGraphModel dx="2206" dy="1175" grid="1" gridSize="10" guides="1" tooltips="1" connect="1" arrows="1" fold="1" page="1" pageScale="1" pageWidth="850" pageHeight="1100" math="0" shadow="0">
      <root>
        <mxCell id="0" />
        <mxCell id="1" parent="0" />
        <mxCell id="1v7Oj3je-4pJ5UF3JADJ-1" value="Admin" style="shape=umlActor;verticalLabelPosition=bottom;verticalAlign=top;html=1;outlineConnect=0;" vertex="1" parent="1">
          <mxGeometry x="30" y="330" width="40" height="80" as="geometry" />
        </mxCell>
        <mxCell id="1v7Oj3je-4pJ5UF3JADJ-2" value="Manter dados no sistema" style="ellipse;whiteSpace=wrap;html=1;" vertex="1" parent="1">
          <mxGeometry x="90" y="70" width="120" height="50" as="geometry" />
        </mxCell>
        <mxCell id="1v7Oj3je-4pJ5UF3JADJ-3" value="Fazer pedido de compras" style="ellipse;whiteSpace=wrap;html=1;" vertex="1" parent="1">
          <mxGeometry x="210" y="110" width="120" height="70" as="geometry" />
        </mxCell>
        <mxCell id="1v7Oj3je-4pJ5UF3JADJ-4" value="Entrada de estoque" style="ellipse;whiteSpace=wrap;html=1;" vertex="1" parent="1">
          <mxGeometry x="279" y="200" width="150" height="80" as="geometry" />
        </mxCell>
        <mxCell id="1v7Oj3je-4pJ5UF3JADJ-5" value="Consultar gráficos&amp;nbsp;&amp;nbsp;" style="ellipse;whiteSpace=wrap;html=1;" vertex="1" parent="1">
          <mxGeometry x="50" y="510" width="130" height="50" as="geometry" />
        </mxCell>
        <mxCell id="1v7Oj3je-4pJ5UF3JADJ-6" value="Consultar relatórios" style="ellipse;whiteSpace=wrap;html=1;" vertex="1" parent="1">
          <mxGeometry x="180" y="520" width="120" height="60" as="geometry" />
        </mxCell>
        <mxCell id="1v7Oj3je-4pJ5UF3JADJ-7" value="Controle de acesso" style="ellipse;whiteSpace=wrap;html=1;" vertex="1" parent="1">
          <mxGeometry x="310" y="510" width="120" height="50" as="geometry" />
        </mxCell>
        <mxCell id="1v7Oj3je-4pJ5UF3JADJ-8" value="Consultar contas e receber" style="ellipse;whiteSpace=wrap;html=1;" vertex="1" parent="1">
          <mxGeometry x="370" y="430" width="120" height="70" as="geometry" />
        </mxCell>
        <mxCell id="1v7Oj3je-4pJ5UF3JADJ-9" value="" style="endArrow=none;html=1;rounded=0;entryX=0.442;entryY=1.02;entryDx=0;entryDy=0;entryPerimeter=0;" edge="1" parent="1" target="1v7Oj3je-4pJ5UF3JADJ-2">
          <mxGeometry width="50" height="50" relative="1" as="geometry">
            <mxPoint x="60" y="310" as="sourcePoint" />
            <mxPoint x="95" y="260" as="targetPoint" />
          </mxGeometry>
        </mxCell>
        <mxCell id="1v7Oj3je-4pJ5UF3JADJ-10" value="" style="endArrow=none;html=1;rounded=0;entryX=0.047;entryY=0.75;entryDx=0;entryDy=0;entryPerimeter=0;" edge="1" parent="1" target="1v7Oj3je-4pJ5UF3JADJ-4">
          <mxGeometry width="50" height="50" relative="1" as="geometry">
            <mxPoint x="80" y="330" as="sourcePoint" />
            <mxPoint x="250" y="240" as="targetPoint" />
          </mxGeometry>
        </mxCell>
        <mxCell id="1v7Oj3je-4pJ5UF3JADJ-11" value="" style="endArrow=none;html=1;rounded=0;entryX=0.375;entryY=0.971;entryDx=0;entryDy=0;entryPerimeter=0;" edge="1" parent="1" target="1v7Oj3je-4pJ5UF3JADJ-3">
          <mxGeometry width="50" height="50" relative="1" as="geometry">
            <mxPoint x="70" y="320" as="sourcePoint" />
            <mxPoint x="110" y="290" as="targetPoint" />
          </mxGeometry>
        </mxCell>
        <mxCell id="1v7Oj3je-4pJ5UF3JADJ-13" value="" style="endArrow=none;html=1;rounded=0;exitX=0.5;exitY=0;exitDx=0;exitDy=0;" edge="1" parent="1" source="1v7Oj3je-4pJ5UF3JADJ-5">
          <mxGeometry width="50" height="50" relative="1" as="geometry">
            <mxPoint x="80" y="480" as="sourcePoint" />
            <mxPoint x="80" y="420" as="targetPoint" />
          </mxGeometry>
        </mxCell>
        <mxCell id="1v7Oj3je-4pJ5UF3JADJ-14" value="" style="endArrow=none;html=1;rounded=0;entryX=0.25;entryY=0.083;entryDx=0;entryDy=0;entryPerimeter=0;" edge="1" parent="1" target="1v7Oj3je-4pJ5UF3JADJ-6">
          <mxGeometry width="50" height="50" relative="1" as="geometry">
            <mxPoint x="80" y="410" as="sourcePoint" />
            <mxPoint x="290" y="360" as="targetPoint" />
          </mxGeometry>
        </mxCell>
        <mxCell id="1v7Oj3je-4pJ5UF3JADJ-15" value="" style="endArrow=none;html=1;rounded=0;entryX=0.075;entryY=0.28;entryDx=0;entryDy=0;entryPerimeter=0;" edge="1" parent="1" target="1v7Oj3je-4pJ5UF3JADJ-7">
          <mxGeometry width="50" height="50" relative="1" as="geometry">
            <mxPoint x="80" y="400" as="sourcePoint" />
            <mxPoint x="290" y="360" as="targetPoint" />
          </mxGeometry>
        </mxCell>
        <mxCell id="1v7Oj3je-4pJ5UF3JADJ-16" value="" style="endArrow=none;html=1;rounded=0;exitX=0;exitY=0.5;exitDx=0;exitDy=0;" edge="1" parent="1" source="1v7Oj3je-4pJ5UF3JADJ-8">
          <mxGeometry width="50" height="50" relative="1" as="geometry">
            <mxPoint x="240" y="410" as="sourcePoint" />
            <mxPoint x="80" y="390" as="targetPoint" />
          </mxGeometry>
        </mxCell>
        <mxCell id="1v7Oj3je-4pJ5UF3JADJ-42" value="Registro de pedidos" style="ellipse;whiteSpace=wrap;html=1;" vertex="1" parent="1">
          <mxGeometry x="460" y="50" width="130" height="60" as="geometry" />
        </mxCell>
        <mxCell id="1v7Oj3je-4pJ5UF3JADJ-43" value="Registro de entrada" style="ellipse;whiteSpace=wrap;html=1;" vertex="1" parent="1">
          <mxGeometry x="570" y="170" width="130" height="70" as="geometry" />
        </mxCell>
        <mxCell id="1v7Oj3je-4pJ5UF3JADJ-58" value="" style="endArrow=classic;html=1;rounded=0;" edge="1" parent="1" target="1v7Oj3je-4pJ5UF3JADJ-43">
          <mxGeometry relative="1" as="geometry">
            <mxPoint x="430" y="239" as="sourcePoint" />
            <mxPoint x="530" y="239" as="targetPoint" />
          </mxGeometry>
        </mxCell>
        <mxCell id="1v7Oj3je-4pJ5UF3JADJ-59" value="Include" style="edgeLabel;resizable=0;html=1;align=center;verticalAlign=middle;" connectable="0" vertex="1" parent="1v7Oj3je-4pJ5UF3JADJ-58">
          <mxGeometry relative="1" as="geometry" />
        </mxCell>
        <mxCell id="1v7Oj3je-4pJ5UF3JADJ-60" value="" style="endArrow=classic;html=1;rounded=0;entryX=0.054;entryY=0.717;entryDx=0;entryDy=0;entryPerimeter=0;exitX=0.917;exitY=0.286;exitDx=0;exitDy=0;exitPerimeter=0;" edge="1" parent="1" source="1v7Oj3je-4pJ5UF3JADJ-3" target="1v7Oj3je-4pJ5UF3JADJ-42">
          <mxGeometry relative="1" as="geometry">
            <mxPoint x="329" y="130" as="sourcePoint" />
            <mxPoint x="429" y="130" as="targetPoint" />
          </mxGeometry>
        </mxCell>
        <mxCell id="1v7Oj3je-4pJ5UF3JADJ-61" value="Include" style="edgeLabel;resizable=0;html=1;align=center;verticalAlign=middle;" connectable="0" vertex="1" parent="1v7Oj3je-4pJ5UF3JADJ-60">
          <mxGeometry relative="1" as="geometry" />
        </mxCell>
        <mxCell id="1v7Oj3je-4pJ5UF3JADJ-86" value="Atendente" style="shape=umlActor;verticalLabelPosition=bottom;verticalAlign=top;html=1;outlineConnect=0;" vertex="1" parent="1">
          <mxGeometry x="970" y="330" width="40" height="80" as="geometry" />
        </mxCell>
        <mxCell id="1v7Oj3je-4pJ5UF3JADJ-87" value="Vender produto&amp;nbsp;" style="ellipse;whiteSpace=wrap;html=1;" vertex="1" parent="1">
          <mxGeometry x="880" y="190" width="122" height="60" as="geometry" />
        </mxCell>
        <mxCell id="1v7Oj3je-4pJ5UF3JADJ-88" value="Pesquisar produto" style="ellipse;whiteSpace=wrap;html=1;" vertex="1" parent="1">
          <mxGeometry x="780" y="480" width="90" height="60" as="geometry" />
        </mxCell>
        <mxCell id="1v7Oj3je-4pJ5UF3JADJ-89" value="Pesquisar cliente&amp;nbsp;" style="ellipse;whiteSpace=wrap;html=1;" vertex="1" parent="1">
          <mxGeometry x="850" y="560" width="100" height="50" as="geometry" />
        </mxCell>
        <mxCell id="1v7Oj3je-4pJ5UF3JADJ-90" value="Cadastro de cliente" style="ellipse;whiteSpace=wrap;html=1;" vertex="1" parent="1">
          <mxGeometry x="970" y="530" width="100" height="50" as="geometry" />
        </mxCell>
        <mxCell id="1v7Oj3je-4pJ5UF3JADJ-94" value="Emitir nota fiscal" style="ellipse;whiteSpace=wrap;html=1;" vertex="1" parent="1">
          <mxGeometry x="790" y="100" width="100" height="40" as="geometry" />
        </mxCell>
        <mxCell id="1v7Oj3je-4pJ5UF3JADJ-95" value="Registrar venda" style="ellipse;whiteSpace=wrap;html=1;" vertex="1" parent="1">
          <mxGeometry x="960" y="110" width="99" height="40" as="geometry" />
        </mxCell>
        <mxCell id="1v7Oj3je-4pJ5UF3JADJ-96" value="Baixa no estoque" style="ellipse;whiteSpace=wrap;html=1;" vertex="1" parent="1">
          <mxGeometry x="1059" y="20" width="100" height="40" as="geometry" />
        </mxCell>
        <mxCell id="1v7Oj3je-4pJ5UF3JADJ-97" value="" style="endArrow=none;html=1;rounded=0;exitX=0.41;exitY=1;exitDx=0;exitDy=0;exitPerimeter=0;" edge="1" parent="1" source="1v7Oj3je-4pJ5UF3JADJ-87">
          <mxGeometry width="50" height="50" relative="1" as="geometry">
            <mxPoint x="5820" y="280" as="sourcePoint" />
            <mxPoint x="970" y="320" as="targetPoint" />
          </mxGeometry>
        </mxCell>
        <mxCell id="1v7Oj3je-4pJ5UF3JADJ-106" value="" style="endArrow=none;html=1;rounded=0;exitX=0.421;exitY=0.059;exitDx=0;exitDy=0;exitPerimeter=0;" edge="1" parent="1" source="1v7Oj3je-4pJ5UF3JADJ-90">
          <mxGeometry width="50" height="50" relative="1" as="geometry">
            <mxPoint x="1010" y="530" as="sourcePoint" />
            <mxPoint x="1000" y="440" as="targetPoint" />
          </mxGeometry>
        </mxCell>
        <mxCell id="1v7Oj3je-4pJ5UF3JADJ-107" value="" style="endArrow=none;html=1;rounded=0;exitX=0.592;exitY=-0.027;exitDx=0;exitDy=0;exitPerimeter=0;" edge="1" parent="1" source="1v7Oj3je-4pJ5UF3JADJ-89">
          <mxGeometry width="50" height="50" relative="1" as="geometry">
            <mxPoint x="1160" y="500" as="sourcePoint" />
            <mxPoint x="960" y="440" as="targetPoint" />
            <Array as="points" />
          </mxGeometry>
        </mxCell>
        <mxCell id="1v7Oj3je-4pJ5UF3JADJ-108" value="" style="endArrow=none;html=1;rounded=0;exitX=0.79;exitY=0.073;exitDx=0;exitDy=0;exitPerimeter=0;" edge="1" parent="1" source="1v7Oj3je-4pJ5UF3JADJ-88">
          <mxGeometry width="50" height="50" relative="1" as="geometry">
            <mxPoint x="850" y="490" as="sourcePoint" />
            <mxPoint x="950" y="430" as="targetPoint" />
          </mxGeometry>
        </mxCell>
        <mxCell id="1v7Oj3je-4pJ5UF3JADJ-109" value="" style="endArrow=classic;html=1;rounded=0;" edge="1" parent="1">
          <mxGeometry width="50" height="50" relative="1" as="geometry">
            <mxPoint x="80" y="370" as="sourcePoint" />
            <mxPoint x="960" y="370" as="targetPoint" />
          </mxGeometry>
        </mxCell>
        <mxCell id="1v7Oj3je-4pJ5UF3JADJ-111" value="" style="endArrow=classic;html=1;rounded=0;exitX=0;exitY=0;exitDx=0;exitDy=0;entryX=0.773;entryY=0.875;entryDx=0;entryDy=0;entryPerimeter=0;" edge="1" parent="1" source="1v7Oj3je-4pJ5UF3JADJ-87" target="1v7Oj3je-4pJ5UF3JADJ-94">
          <mxGeometry relative="1" as="geometry">
            <mxPoint x="902" y="180" as="sourcePoint" />
            <mxPoint x="1002" y="180" as="targetPoint" />
          </mxGeometry>
        </mxCell>
        <mxCell id="1v7Oj3je-4pJ5UF3JADJ-112" value="Include" style="edgeLabel;resizable=0;html=1;align=center;verticalAlign=middle;" connectable="0" vertex="1" parent="1v7Oj3je-4pJ5UF3JADJ-111">
          <mxGeometry relative="1" as="geometry" />
        </mxCell>
        <mxCell id="1v7Oj3je-4pJ5UF3JADJ-114" value="" style="endArrow=classic;html=1;rounded=0;entryX=0.236;entryY=0.992;entryDx=0;entryDy=0;entryPerimeter=0;" edge="1" parent="1" source="1v7Oj3je-4pJ5UF3JADJ-87" target="1v7Oj3je-4pJ5UF3JADJ-95">
          <mxGeometry relative="1" as="geometry">
            <mxPoint x="960" y="189.17" as="sourcePoint" />
            <mxPoint x="1060" y="189.17" as="targetPoint" />
          </mxGeometry>
        </mxCell>
        <mxCell id="1v7Oj3je-4pJ5UF3JADJ-115" value="Include" style="edgeLabel;resizable=0;html=1;align=center;verticalAlign=middle;" connectable="0" vertex="1" parent="1v7Oj3je-4pJ5UF3JADJ-114">
          <mxGeometry relative="1" as="geometry" />
        </mxCell>
        <mxCell id="1v7Oj3je-4pJ5UF3JADJ-116" value="" style="endArrow=classic;html=1;rounded=0;entryX=0.21;entryY=0.75;entryDx=0;entryDy=0;entryPerimeter=0;exitX=0.589;exitY=0.054;exitDx=0;exitDy=0;exitPerimeter=0;" edge="1" parent="1" source="1v7Oj3je-4pJ5UF3JADJ-95" target="1v7Oj3je-4pJ5UF3JADJ-96">
          <mxGeometry relative="1" as="geometry">
            <mxPoint x="1002" y="109.16999999999999" as="sourcePoint" />
            <mxPoint x="1102" y="109.16999999999999" as="targetPoint" />
          </mxGeometry>
        </mxCell>
        <mxCell id="1v7Oj3je-4pJ5UF3JADJ-117" value="Include" style="edgeLabel;resizable=0;html=1;align=center;verticalAlign=middle;" connectable="0" vertex="1" parent="1v7Oj3je-4pJ5UF3JADJ-116">
          <mxGeometry relative="1" as="geometry" />
        </mxCell>
      </root>
    </mxGraphModel>
  </diagram>
</mxfile>
